<svg xmlns="http://www.w3.org/2000/svg" width="1200" height="820" viewBox="0 0 1200 820">
<rect width="100%" height="100%" rx="28" fill="#ffffff"/>
<text x="110.0" y="42.0" font-size="26" font-weight="700" fill="#1f2937">Phase 3 adjusted cost/performance frontier</text>
<text x="110.0" y="68.0" font-size="14" font-weight="400" fill="#6b7280">Valid full-suite arms; x-axis uses mean adjusted cost per benchmark attempt.</text>
<line x1="110.0" y1="80" x2="110.0" y2="710" stroke="#e5e7eb" stroke-width="1"/>
<text x="94.0" y="746.0" font-size="13" font-weight="400" fill="#6b7280">$0.0</text>
<line x1="264.0" y1="80" x2="264.0" y2="710" stroke="#e5e7eb" stroke-width="1"/>
<text x="248.0" y="746.0" font-size="13" font-weight="400" fill="#6b7280">$0.5</text>
<line x1="418.0" y1="80" x2="418.0" y2="710" stroke="#e5e7eb" stroke-width="1"/>
<text x="402.0" y="746.0" font-size="13" font-weight="400" fill="#6b7280">$1.0</text>
<line x1="572.1" y1="80" x2="572.1" y2="710" stroke="#e5e7eb" stroke-width="1"/>
<text x="556.1" y="746.0" font-size="13" font-weight="400" fill="#6b7280">$1.5</text>
<line x1="726.1" y1="80" x2="726.1" y2="710" stroke="#e5e7eb" stroke-width="1"/>
<text x="710.1" y="746.0" font-size="13" font-weight="400" fill="#6b7280">$2.0</text>
<line x1="880.1" y1="80" x2="880.1" y2="710" stroke="#e5e7eb" stroke-width="1"/>
<text x="864.1" y="746.0" font-size="13" font-weight="400" fill="#6b7280">$2.5</text>
<line x1="1034.1" y1="80" x2="1034.1" y2="710" stroke="#e5e7eb" stroke-width="1"/>
<text x="1018.1" y="746.0" font-size="13" font-weight="400" fill="#6b7280">$3.0</text>
<line x1="110" y1="651.0" x2="1130" y2="651.0" stroke="#e5e7eb" stroke-width="1"/>
<text x="38.0" y="655.0" font-size="13" font-weight="400" fill="#6b7280">20%</text>
<line x1="110" y1="557.9" x2="1130" y2="557.9" stroke="#e5e7eb" stroke-width="1"/>
<text x="38.0" y="561.9" font-size="13" font-weight="400" fill="#6b7280">30%</text>
<line x1="110" y1="464.8" x2="1130" y2="464.8" stroke="#e5e7eb" stroke-width="1"/>
<text x="38.0" y="468.8" font-size="13" font-weight="400" fill="#6b7280">40%</text>
<line x1="110" y1="371.7" x2="1130" y2="371.7" stroke="#e5e7eb" stroke-width="1"/>
<text x="38.0" y="375.7" font-size="13" font-weight="400" fill="#6b7280">50%</text>
<line x1="110" y1="278.6" x2="1130" y2="278.6" stroke="#e5e7eb" stroke-width="1"/>
<text x="38.0" y="282.6" font-size="13" font-weight="400" fill="#6b7280">60%</text>
<line x1="110" y1="185.5" x2="1130" y2="185.5" stroke="#e5e7eb" stroke-width="1"/>
<text x="38.0" y="189.5" font-size="13" font-weight="400" fill="#6b7280">70%</text>
<line x1="110" y1="92.4" x2="1130" y2="92.4" stroke="#e5e7eb" stroke-width="1"/>
<text x="38.0" y="96.4" font-size="13" font-weight="400" fill="#6b7280">80%</text>
<line x1="110" y1="710" x2="1130" y2="710" stroke="#9ca3af" stroke-width="1.2"/>
<line x1="110" y1="80" x2="110" y2="710" stroke="#9ca3af" stroke-width="1.2"/>
<text x="435.0" y="792.0" font-size="16" font-weight="700" fill="#111827">Mean adjusted cost per benchmark attempt ($)</text>
<text x="26" y="530.0" font-size="16" font-weight="700" fill="#111827" transform="rotate(-90 26,530.0)">Overall pass rate</text>
<polygon points="110.0,710.0 214.2,278.6 240.0,247.6 303.5,232.1 401.6,216.6 1054.4,154.5 1130.0,154.5 1130.0,710.0" fill="#fee2e2" opacity="0.55"/>
<polyline points="214.2,278.6 240.0,247.6 303.5,232.1 401.6,216.6 1054.4,154.5" fill="none" stroke="#ef4444" stroke-width="4" stroke-dasharray="10 9"/>
<circle cx="333.5" cy="635.5" r="8" fill="#475569" stroke="#ffffff" stroke-width="3"/>
<circle cx="538.7" cy="449.3" r="8" fill="#475569" stroke="#ffffff" stroke-width="3"/>
<circle cx="381.0" cy="402.8" r="8" fill="#475569" stroke="#ffffff" stroke-width="3"/>
<circle cx="290.4" cy="371.7" r="8" fill="#475569" stroke="#ffffff" stroke-width="3"/>
<circle cx="289.4" cy="325.2" r="8" fill="#475569" stroke="#ffffff" stroke-width="3"/>
<circle cx="214.2" cy="278.6" r="10" fill="#ef4444" stroke="#ffffff" stroke-width="3"/>
<circle cx="382.9" cy="278.6" r="8" fill="#475569" stroke="#ffffff" stroke-width="3"/>
<circle cx="369.0" cy="263.1" r="8" fill="#475569" stroke="#ffffff" stroke-width="3"/>
<circle cx="348.6" cy="247.6" r="8" fill="#475569" stroke="#ffffff" stroke-width="3"/>
<circle cx="240.0" cy="247.6" r="10" fill="#ef4444" stroke="#ffffff" stroke-width="3"/>
<circle cx="303.5" cy="232.1" r="10" fill="#ef4444" stroke="#ffffff" stroke-width="3"/>
<circle cx="441.1" cy="232.1" r="8" fill="#475569" stroke="#ffffff" stroke-width="3"/>
<circle cx="1052.8" cy="232.1" r="8" fill="#475569" stroke="#ffffff" stroke-width="3"/>
<circle cx="401.6" cy="216.6" r="10" fill="#ef4444" stroke="#ffffff" stroke-width="3"/>
<circle cx="1054.4" cy="154.5" r="10" fill="#ef4444" stroke="#ffffff" stroke-width="3"/>
<text x="315.5" y="214.1" font-size="12" font-weight="700" fill="#111827">Fable 5 · 65.0% · $0.63/attempt</text>
<text x="550.7" y="475.3" font-size="12" font-weight="400" fill="#6b7280">Haiku · 41.7% · $1.39/attempt</text>
<text x="453.1" y="258.1" font-size="12" font-weight="400" fill="#6b7280">Opus · 65.0% · $1.07/attempt</text>
<text x="393.0" y="390.8" font-size="12" font-weight="400" fill="#6b7280">Sonnet · 46.7% · $0.88/attempt</text>
<text x="413.6" y="198.6" font-size="12" font-weight="700" fill="#111827">Deepseek Flash · 66.7% · $0.95/attempt</text>
<text x="381.0" y="251.1" font-size="12" font-weight="400" fill="#6b7280">Deepseek Pro · 61.7% · $0.84/attempt</text>
<text x="360.6" y="235.6" font-size="12" font-weight="400" fill="#6b7280">Gemini 3.1 Pro · 63.3% · $0.77/attempt</text>
<text x="345.5" y="661.5" font-size="12" font-weight="400" fill="#6b7280">Gemini Flash · 21.7% · $0.73/attempt</text>
<text x="226.2" y="256.6" font-size="12" font-weight="700" fill="#111827">GLM 5.1 · 60.0% · $0.34/attempt</text>
<text x="252.0" y="229.6" font-size="12" font-weight="700" fill="#111827">GLM 5.2 · 63.3% · $0.42/attempt</text>
<text x="874.8" y="258.1" font-size="12" font-weight="400" fill="#6b7280">GPT 5.4 · 65.0% · $3.06/attempt</text>
<text x="874.4" y="136.5" font-size="12" font-weight="700" fill="#111827">GPT 5.5 · 73.3% · $3.07/attempt</text>
<text x="394.9" y="266.6" font-size="12" font-weight="400" fill="#6b7280">Grok Build · 60.0% · $0.89/attempt</text>
<text x="302.4" y="359.7" font-size="12" font-weight="400" fill="#6b7280">Kimi K2.6 · 50.0% · $0.59/attempt</text>
<text x="301.4" y="313.2" font-size="12" font-weight="400" fill="#6b7280">Qwen 3.7 Plus · 55.0% · $0.58/attempt</text>
</svg>
